<?xml version="1.0" encoding="UTF-8"?>
<!DOCTYPE svg PUBLIC "-//W3C//DTD SVG 1.1//EN" "http://www.w3.org/Graphics/SVG/1.1/DTD/svg11.dtd">
<!-- Creator: CorelDRAW -->
<svg xmlns="http://www.w3.org/2000/svg" xml:space="preserve" width="11.4077in" height="10.2986in" version="1.1" style="shape-rendering:geometricPrecision; text-rendering:geometricPrecision; image-rendering:optimizeQuality; fill-rule:evenodd; clip-rule:evenodd"
viewBox="0 0 11407.75 10298.58"
 xmlns:xlink="http://www.w3.org/1999/xlink"
 xmlns:xodm="http://www.corel.com/coreldraw/odm/2003">
 <defs>
  <style type="text/css">
   <![CDATA[
    .fil0 {fill:#FEFEFE}
   ]]>
  </style>
 </defs>
 <g id="Layer_x0020_1">
  <metadata id="CorelCorpID_0Corel-Layer"/>
  <g id="_1678754912">
   <path class="fil0" d="M5912.81 3895.07c17.23,-8.3 414.63,-406.65 594.5,-513.57 735.43,-437.2 2194.74,-311.27 3095.49,-297.28l3.03 -3084.22c-632.75,7.33 -1265.89,0.13 -1895.85,0.63 -344.11,0.28 -501.79,32.79 -756.74,187.54 -390.78,237.19 -677.46,631.83 -839.84,1063.72 -225.9,600.81 -203.06,1064.4 -202.85,1693.18 0.09,283.72 -23.09,680.22 2.26,950z"/>
   <path class="fil0" d="M1814.08 3084.54c344.87,-6.51 2000.58,-15.15 2246.86,9.73 477.28,48.21 1000.36,311.39 1316.58,655.22 20.2,21.97 106.46,133.75 130.11,145.88 16.84,-242.73 5.95,-1611.97 -18.04,-1852.6 -72.1,-723.32 -375.28,-1437.69 -1005.48,-1844.06 -220.74,-142.34 -446.09,-198.17 -760.24,-198.04 -634.44,0.26 -1272.72,6.67 -1906.7,-0.69l-3.08 3084.54z"/>
   <path class="fil0" d="M5505.76 7018.23l4.46 -1684.27c0,-648.78 -107.75,-899.33 -426.32,-1276.85 -250.94,-297.39 -751.18,-532.61 -1138.36,-549.95 -544.61,-24.4 -1152.73,-3.3 -1703.55,-1.31 -29.51,145.11 28.04,621.71 53.39,782.58 174.13,1105.13 787.84,1971.83 1829.53,2422.38 310.21,134.18 1002.04,337.74 1380.85,307.42z"/>
   <path class="fil0" d="M5910.4 7011.23c131.01,35.83 606.24,-56.93 746.48,-91.44 468.51,-115.3 1206.63,-417.81 1533.06,-786.46 546.93,-617.67 793.08,-984.58 931.25,-1831.91 27,-165.61 85.81,-641.51 55.95,-794.87 -279.07,-5.23 -562.59,-0.46 -842.17,-0.54 -538.45,-0.14 -1017.48,-67.88 -1505.6,183.49 -375.04,193.13 -664.78,499.26 -813.29,881.21 -95.76,246.28 -105.11,451.65 -105.19,735.47l-0.5 1705.05z"/>
   <path class="fil0" d="M10036.07 9325.91c16.86,-239.34 126.63,-397.35 293.43,-469.53 217.97,-94.33 440.91,-15.88 543.81,121.67l-837.23 347.87zm1358.72 354.12l-492.81 1.18c-122.99,294.99 -656.04,245.44 -755.3,18.09l1261.06 -533.07c-51.43,-439.46 -442.37,-791.7 -948.34,-754.29 -1036.85,76.66 -1170.88,1607.67 -144.51,1859.14 507.78,124.41 1002.8,-190.87 1079.89,-591.05z"/>
   <path class="fil0" d="M1991.96 10248.69l463 5.18c-3.09,-291.85 -0.56,-578.74 -0.48,-864.36 0.04,-144.47 -16.22,-274.22 55.33,-380.61 52.57,-78.17 146.98,-144.2 283.27,-147.92 371.65,-10.14 349.45,310.75 349.41,514.65 -0.07,291.76 2.41,584.51 -0.42,876.15l462.02 2.99c1.43,-311.16 34.22,-1037.85 -32.43,-1296.31 -190.3,-737.98 -1329.95,-739.41 -1545.59,10.78 -71.06,247.2 -29.8,974.49 -34.1,1279.46z"/>
   <path class="fil0" d="M1619.79 8454.31l-461.99 1.13c1.28,290.48 0.33,577.68 0.24,864.63 -0.06,190.57 20.55,527.03 -350.82,528.19 -367.37,1.15 -337.56,-322.2 -337.54,-528.19 0.01,-155.16 19.81,-760.68 -6.81,-863.84l-449.65 -1.36c-27.39,149.02 -8.55,1150.59 23.08,1275.15 85.67,337.39 349.32,561.11 756.88,566.35 403.73,5.18 690.55,-222.9 787.02,-537.38 74.13,-241.63 39.02,-1000.55 39.58,-1304.67z"/>
   <path class="fil0" d="M5387.72 10253.56l488.93 0.75c45.68,-59.43 428.59,-1117.26 512.83,-1338.59 52.5,-137.93 134.15,-323.33 170.25,-460.45l-476.59 -0.32 -440.64 1322.24 -341.78 -992.08c-15.29,-45.15 -86.7,-318.54 -132.4,-330.42l-456.88 0.31 676.29 1798.55z"/>
   <path class="fil0" d="M9465.45 10252.85l0.84 -422.04c-445.13,10.91 -343.26,-360.46 -343.28,-913.52 -0.02,-414.08 12.4,-847.19 -0.82,-1258.86l-462.7 -2.45c-21.66,549.04 -1.26,1140.82 -1.07,1691.87 0.19,558.32 122.39,931.08 807.04,905z"/>
   <path class="fil0" d="M8458.09 10249.64l1.65 -417.04c-442.62,-9.37 -341.78,-302.39 -341.98,-915.32 -0.08,-240.09 12.04,-1097.04 -3.23,-1261.8l-459.42 0.21c-19.45,226.21 -2.94,1367.36 -2.97,1692.15 -0.03,265.72 25.39,522.01 162.21,687.44 127.04,153.6 365.85,248.89 643.74,214.35z"/>
   <polygon class="fil0" points="6788.98,8542.29 6788.93,10254.76 7251.44,10254.07 7251.14,8457.17 6788.61,8455.01 "/>
   <polygon class="fil0" points="4022.5,8528.4 4022.54,10195.07 4022.27,10255.69 4484.4,10253.6 4483.67,10195.07 4483.79,9347.85 4483.8,8514.51 4484.01,8459.51 4022.38,8454.27 "/>
   <path class="fil0" d="M6788.23 8255.75l458.69 4.94c27.8,-229.82 16.37,-493.89 -231.49,-489.62 -244.35,4.21 -245.62,262.08 -227.2,484.67z"/>
   <path class="fil0" d="M4021.85 8258.05l459.55 2.31c14.63,-189.7 38.26,-489.24 -229.84,-489.67 -113.28,-0.19 -190.21,74.9 -216.27,151.58 -21.68,63.78 -21.33,248.59 -13.43,335.78z"/>
  </g>
 </g>
</svg>
