<?xml version="1.0" encoding="UTF-8"?>
<!DOCTYPE svg PUBLIC "-//W3C//DTD SVG 1.1//EN" "http://www.w3.org/Graphics/SVG/1.1/DTD/svg11.dtd">
<!-- Creator: CorelDRAW -->
<svg xmlns="http://www.w3.org/2000/svg" xml:space="preserve" width="7.12681in" height="7.12681in" version="1.1" style="shape-rendering:geometricPrecision; text-rendering:geometricPrecision; image-rendering:optimizeQuality; fill-rule:evenodd; clip-rule:evenodd"
viewBox="0 0 7126.81 7126.81"
 xmlns:xlink="http://www.w3.org/1999/xlink"
 xmlns:xodm="http://www.corel.com/coreldraw/odm/2003">
 <defs>
  <style type="text/css">
   <![CDATA[
    .fil1 {fill:#FEFEFE}
    .fil0 {fill:#FEFEFE;fill-rule:nonzero}
   ]]>
  </style>
 </defs>
 <g id="Layer_x0020_1">
  <metadata id="CorelCorpID_0Corel-Layer"/>
  <g id="_849060032">
   <path class="fil0" d="M3563.41 0c983.99,0 1874.85,398.85 2519.7,1043.7 644.85,644.85 1043.7,1535.71 1043.7,2519.7 0,983.99 -398.85,1874.85 -1043.7,2519.7 -644.85,644.85 -1535.71,1043.7 -2519.7,1043.7 -983.99,0 -1874.85,-398.85 -2519.7,-1043.7 -644.85,-644.85 -1043.7,-1535.71 -1043.7,-2519.7 0,-983.99 398.85,-1874.85 1043.7,-2519.7 644.85,-644.85 1535.71,-1043.7 2519.7,-1043.7zm2323.3 1240.11c-594.57,-594.57 -1415.98,-962.33 -2323.3,-962.33 -907.31,0 -1728.72,367.75 -2323.3,962.33 -594.57,594.57 -962.33,1415.98 -962.33,2323.3 0,686.66 210.63,1324.11 570.8,1851.28 85.74,125.5 179.97,244.76 281.84,356.93 408.6,-1009.66 1443.42,-1419.81 2432.98,-1419.81 1007.5,0 2095.52,460.26 2432.94,1419.87 529.81,-583.37 852.69,-1358.11 852.69,-2208.26 0,-907.31 -367.75,-1728.72 -962.33,-2323.3z"/>
   <circle class="fil1" cx="3563.41" cy="2550.06" r="1222.39"/>
  </g>
 </g>
</svg>
